<svg version="1.2" xmlns="http://www.w3.org/2000/svg" viewBox="0 0 400 400" width="192" height="192">
    <style>
        .a {
            fill: #6a7fdb
        }

        .b {
            fill: #fff
        }

        .c {
            fill: #1d282c
        }
    </style>
    <path class="a"
        d="m200 400c-110.6 0-200-89.4-200-200 0-110.6 89.4-200 200-200 110.6 0 200 89.4 200 200 0 110.6-89.4 200-200 200z" />
    <path fill-rule="evenodd" class="b"
        d="m320 198.9q6.8 0 9.8 3 3.3 3 3.3 7.8 0 7.8-4.8 13.7-4.4 6-14.3 6.3-23.9 0.6-42.4-3.6-21.2 44.5-51.4 74.1-29.9 29.3-60.1 29.3-31 0-46.3-36.2-15.2-36.1-15.2-97.6 0-52.6 7.5-94.4 2.7-15.6 7.4-21 5.1-5.6 17.1-5.6 19.7 0 19.7 17 0 1.8-0.6 6.6-9 53.7-9 97.4 0 45.7 7.5 69.6 7.8 23.6 23 23.6 15.5 0 33.8-21.5 18.2-21.6 33.4-54.1-18.2-11.4-27.5-29.3-9.2-18.2-9.2-41.8 0-23.6 7.1-39.8 7.5-16.4 20.1-24.4 12.8-8.1 28.3-8.1 19.2 0 30.2 13.7 11.4 13.8 11.4 37.7 0 34.3-15 75 15.9 2.6 36.2 2.6zm-88.2-58.8q0 29.3 18.9 43.3 11.6-33.5 11.6-55.3 0-12.5-3.3-18.2-3.3-6-8.9-6-8.1 0-13.2 9.6-5.1 9.3-5.1 26.6z" />
    <path class="c"
        d="m236 336c0-6.1 4.9-11 11-11h129c6.1 0 11 4.9 11 11v44.4c0 6.1-4.9 11-11 11h-129c-6.1 0-11-4.9-11-11z" />
    <path fill-rule="evenodd" class="b"
        d="m271.4 356.3q0 3.3-0.7 6-0.8 2.7-2.4 4.7-1.6 2-4.1 3.1l7.1 7.9h-8l-5.3-6.6q-0.2 0-0.3 0-0.1 0-0.2 0-3.6 0-6.2-1.1-2.6-1-4.3-3-1.7-2-2.6-4.8-0.8-2.8-0.8-6.2 0-4.6 1.5-7.9 1.5-3.4 4.6-5.3 3.1-1.8 7.8-1.8 4.8 0 7.9 1.8 3.1 1.9 4.5 5.3 1.5 3.4 1.5 7.9zm-21.3 0q0 3.1 0.7 5.3 0.8 2.2 2.5 3.4 1.6 1.2 4.2 1.2 2.7 0 4.3-1.2 1.6-1.2 2.4-3.4 0.7-2.2 0.7-5.3 0-4.6-1.7-7.2-1.7-2.7-5.7-2.7-2.6 0-4.2 1.2-1.7 1.2-2.5 3.4-0.7 2.2-0.7 5.3zm44.6-14.6h6.2v19q0 3-1.3 5.4-1.3 2.5-4 3.9-2.7 1.4-6.8 1.4-5.8 0-8.9-3-3-2.9-3-7.8v-18.9h6.2v17.9q0 3.7 1.5 5.1 1.4 1.5 4.3 1.5 2.1 0 3.4-0.7 1.2-0.7 1.8-2.2 0.6-1.4 0.6-3.7zm29.8 24.2v5.1h-16.8v-29.3h16.8v5.1h-10.6v6.4h9.9v5.1h-9.9v7.6zm5.7-24.2h8.5q4 0 6.6 1 2.6 0.9 3.8 2.9 1.3 1.9 1.3 4.9 0 2-0.8 3.5-0.7 1.5-2 2.5-1.2 1.1-2.6 1.7l8.6 12.8h-6.9l-7-11.3h-3.3v11.3h-6.2zm8.1 5.1h-1.9v7.9h2q3.1 0 4.4-1.1 1.3-1 1.3-3 0-2.1-1.4-3-1.4-0.8-4.4-0.8zm21.6-5.1l6 12 6.2-12h6.6l-9.7 17.9v11.3h-6.1v-11.1l-9.7-18.1z" />
</svg>